#!OML:ASF F:\VICON\USERDATA\INSTALL\rory3\rory3.ASF
:FULLY-SPECIFIED
:DEGREES
3724
root 1.2716 9.98816 -1.13229 -15.9062 -66.1271 -3.91063
lowerback 39.0782 1.99389 4.09466
upperback 15.0131 2.51529 1.75533
thorax -2.2374 0.702821 -1.09942
lowerneck -9.2149 11.0243 0.165788
upperneck -8.97297 14.4389 -4.21754
head -0.975054 7.20436 -1.02617
rclavicle -5.12864e-014 -1.86858e-014
rhumerus -49.8445 39.0761 -103.383
rradius 63.3377
rwrist -55.1457
rhand -47.9186 -1.14244
rfingers 7.12502
rthumb -20.5902 -30.0704
lclavicle -5.12864e-014 -1.86858e-014
lhumerus -43.5801 -43.449 104.345
lradius 36.3132
lwrist -11.1183
lhand -48.7508 12.832
lfingers 7.12502
lthumb -21.3897 41.6713
rfemur -77.8977 -8.67096 12.1968
rtibia 90.175
rfoot 8.39974 -0.0572438
rtoes 2.93585
lfemur -75.1224 17.6349 -5.00766
ltibia 89.4656
lfoot 12.7565 -3.76236
ltoes -2.574
3725
root 1.27422 9.98946 -1.1363 -16.0494 -66.1659 -3.75237
lowerback 39.0605 2.01491 4.04751
upperback 15.0035 2.52309 1.71559
thorax -2.24333 0.707119 -1.11968
lowerneck -9.37349 10.9118 0.276159
upperneck -8.93811 14.2741 -4.28229
head -0.929323 7.11587 -1.05384
rclavicle -4.45278e-014 4.37326e-014
rhumerus -49.7251 39.0276 -103.41
rradius 63.2108
rwrist -54.7476
rhand -47.8772 -1.26932
rfingers 7.12502
rthumb -20.5505 -30.2016
lclavicle -4.45278e-014 4.37326e-014
lhumerus -43.524 -43.3281 104.224
lradius 36.2503
lwrist -11.218
lhand -48.6439 12.8984
lfingers 7.12502
lthumb -21.287 41.7494
rfemur -77.9086 -8.63109 12.1501
rtibia 90.1524
rfoot 8.43322 -0.081815
rtoes 3.229
lfemur -75.1058 17.7269 -5.07431
ltibia 89.435
lfoot 12.7615 -3.7677
ltoes -2.39452
3726
root 1.27709 9.9888 -1.13917 -16.1864 -66.1266 -3.62014
lowerback 39.01 1.92457 4.13878
upperback 15.0392 2.43034 1.57377
thorax -2.18035 0.674759 -1.28301
lowerneck -9.62658 10.835 0.452046
upperneck -8.79811 14.1546 -4.33386
head -0.831842 7.04638 -1.07617
rclavicle -8.74653e-015 3.53837e-014
rhumerus -49.5939 39.0598 -103.582
rradius 63.2431
rwrist -54.9102
rhand -48.1602 -1.17379
rfingers 7.12502
rthumb -20.8223 -30.0765
lclavicle -8.74653e-015 3.53837e-014
lhumerus -43.3863 -43.2505 103.928
lradius 36.1899
lwrist -11.2559
lhand -48.5683 13.061
lfingers 7.12502
lthumb -21.2144 41.9201
rfemur -77.9039 -8.67565 12.0894
rtibia 90.1492
rfoot 8.52528 -0.0168101
rtoes 3.26988
lfemur -75.1065 17.7456 -5.16366
ltibia 89.4009
lfoot 12.7705 -3.89126
ltoes -2.82421
3727
root 1.27629 9.98773 -1.14232 -16.2554 -66.1484 -3.55719
lowerback 38.9516 1.86469 4.16979
upperback 15.0664 2.35613 1.47794
thorax -2.12955 0.64557 -1.37362
lowerneck -9.82508 10.7397 0.479199
upperneck -8.72259 14.0239 -4.31061
head -0.779549 6.9763 -1.06224
rclavicle 3.57812e-015 2.34566e-014
rhumerus -49.6253 39.2838 -103.827
rradius 63.4109
rwrist -55.4548
rhand -48.7343 -0.968622
rfingers 7.12502
rthumb -21.3738 -29.8098
lclavicle 3.57812e-015 2.34566e-014
lhumerus -43.4088 -43.3216 103.833
lradius 36.1612
lwrist -11.0659
lhand -48.6501 13.3187
lfingers 7.12502
lthumb -21.293 42.169
rfemur -77.9169 -8.65018 12.0936
rtibia 90.1549
rfoot 8.58213 0.060297
rtoes 3.16939
lfemur -75.0687 17.8614 -5.20188
ltibia 89.3645
lfoot 12.7664 -4.12415
ltoes -3.24784
3728
root 1.27404 9.98456 -1.14248 -16.149 -66.2068 -3.66451
lowerback 38.9167 1.82208 4.1881
upperback 15.0374 2.31229 1.47959
thorax -2.1515 0.624798 -1.36654
lowerneck -9.91461 10.5965 0.385266
upperneck -8.71244 13.8379 -4.30662
head -0.772429 6.88388 -1.04755
rclavicle -1.90833e-014 -2.50469e-014
rhumerus -49.7665 39.565 -104.03
rradius 63.4922
rwrist -55.757
rhand -49.1714 -0.783415
rfingers 7.12502
rthumb -21.7936 -29.5764
lclavicle -1.90833e-014 -2.50469e-014
lhumerus -43.5444 -43.2929 103.94
lradius 36.1224
lwrist -10.9656
lhand -48.6991 13.3877
lfingers 7.12502
lthumb -21.34 42.2326
rfemur -77.9567 -8.60868 12.175
rtibia 90.1642
rfoot 8.56041 0.0537182
rtoes 3.06101
lfemur -75.072 18.0334 -5.17046
ltibia 89.3558
lfoot 12.8019 -4.27865
ltoes -3.03355
3729
root 1.27466 9.9835 -1.14217 -16.2279 -66.2313 -3.60014
lowerback 38.9243 1.80012 4.14045
upperback 15.0046 2.27371 1.50188
thorax -2.19517 0.601858 -1.30613
lowerneck -10.0143 10.4224 0.333863
upperneck -8.69215 13.603 -4.40749
head -0.750592 6.76571 -1.07037
rclavicle -3.85642e-014 2.74323e-014
rhumerus -49.8493 39.8248 -104.099
rradius 63.4845
rwrist -55.7989
rhand -49.4346 -0.851316
rfingers 7.12502
rthumb -22.0464 -29.6147
lclavicle -3.85642e-014 2.74323e-014
lhumerus -43.6207 -43.1307 104.056
lradius 36.0568
lwrist -11.0413
lhand -48.6717 13.2186
lfingers 7.12502
lthumb -21.3137 42.0665
rfemur -77.938 -8.60745 12.171
rtibia 90.1589
rfoot 8.524 0.0154726
rtoes 3.06767
lfemur -75.0625 18.1319 -5.20708
ltibia 89.3569
lfoot 12.8653 -4.25662
ltoes -2.40558
3730
root 1.27653 9.98398 -1.145 -16.3924 -66.2516 -3.43567
lowerback 38.896 1.82074 4.05053
upperback 15.007 2.26666 1.50676
thorax -2.18927 0.59427 -1.25231
lowerneck -10.2122 10.2531 0.273994
upperneck -8.61664 13.3809 -4.3935
head -0.705129 6.65195 -1.05032
rclavicle 3.06128e-014 5.56597e-015
rhumerus -49.8135 40.0922 -104.095
rradius 63.5125
rwrist -55.9774
rhand -49.6684 -1.01378
rfingers 7.12502
rthumb -22.2708 -29.7505
lclavicle 3.06128e-014 5.56597e-015
lhumerus -43.6666 -43.106 104.131
lradius 36.0223
lwrist -11.0789
lhand -48.646 13.3233
lfingers 7.12502
lthumb -21.289 42.174
rfemur -77.9238 -8.58848 12.1304
rtibia 90.1437
rfoot 8.52663 -0.00932769
rtoes 3.16684
lfemur -75.0716 18.2252 -5.28356
ltibia 89.3529
lfoot 12.8926 -4.30739
ltoes -2.23189
